<svg xmlns="http://www.w3.org/2000/svg" xmlns:xlink="http://www.w3.org/1999/xlink" width="100.0" height="100.0" viewBox="22.969842834472715 46.203002853393556 0.8621884918212288 0.19810882568364718" preserveAspectRatio="xMinYMin meet"><g transform="matrix(1,0,0,-1,0,92.60411453247076)"><g><path fill-rule="evenodd" fill="#66cc99" stroke="#555555" stroke-width="0.017243769836424575" opacity="0.6" d="M 23.11756134033203,46.26923751831055 L 23.108898162841797,46.26536560058594 L 23.10748672485363,46.26430511474621 L 23.104681015014762,46.26010513305664 L 23.10163307189947,46.250000000000114 L 23.100803375244254,46.24905395507824 L 23.097520828247184,46.246582031250114 L 23.0965576171875,46.24548721313482 L 23.095674514770508,46.2449302673341 L 23.092174530029354,46.24343872070318 L 23.088010787963924,46.24038314819347 L 23.083366394043082,46.2382049560548 L 23.07521247863781,46.23493576049805 L 23.071325302123967,46.23969650268555 L 23.07060241699213,46.241668701171875 L 23.069700241088924,46.242824554443416 L 23.06843566894537,46.243541717529354 L 23.066627502441406,46.24403762817377 L 23.06496429443365,46.246234893798885 L 23.062850952148438,46.24748611450195 L 23.0626220703125,46.24815368652344 L 23.062761306762752,46.25087356567394 L 23.061862945556697,46.2551727294923 L 23.061449050903434,46.25626754760742 L 23.05998420715332,46.25806045532232 L 23.057676315307674,46.25983810424816 L 23.055141448974666,46.26271438598644 L 23.053401947021484,46.2642440795899 L 23.049621582031193,46.26667404174816 L 23.043565750122013,46.26851654052746 L 23.041521072387695,46.26945877075195 L 23.034791946411076,46.270542144775334 L 23.027051925659293,46.27105712890625 L 23.025453567504826,46.27125549316406 L 23.0227108001709,46.2720832824707 L 23.020351409912053,46.27133178710943 L 23.018688201904297,46.2706871032716 L 23.015596389770508,46.27079391479492 L 23.014116287231502,46.2715797424317 L 23.009817123413143,46.275333404541016 L 23.006668090820426,46.2770614624024 L 23.004106521606445,46.279254913330135 L 23.001775741577205,46.28288269042969 L 23.00555992126465,46.28307723999035 L 23.009967803955135,46.28415679931652 L 23.014947891235465,46.28622436523449 L 23.019996643066463,46.28900146484375 L 23.02426338195812,46.29270935058605 L 23.0276336669923,46.29529953002941 L 23.02804183959961,46.295692443847656 L 23.032444000244197,46.294342041015625 L 23.03491401672369,46.29331588745123 L 23.044847488403434,46.290401458740234 L 23.047790527343807,46.28928375244152 L 23.05300903320324,46.28862762451172 L 23.05723190307623,46.2883415222168 L 23.064565658569393,46.28754806518555 L 23.070388793945426,46.286254882812614 L 23.07513999938959,46.28484725952143 L 23.075983047485465,46.28480148315441 L 23.085800170898494,46.28253173828125 L 23.09811592102045,46.280982971191406 L 23.099718093872127,46.280590057373104 L 23.10583305358898,46.27838897705084 L 23.11215591430664,46.27408218383795 L 23.11620712280279,46.27061080932617 L 23.11756134033203,46.26923751831055 z" /><path fill-rule="evenodd" fill="#66cc99" stroke="#555555" stroke-width="0.017243769836424575" opacity="0.6" d="M 23.687135696411133,46.244800567626896 L 23.685684204101676,46.24456787109375 L 23.685016632080192,46.2442741394043 L 23.684160232544002,46.245235443115234 L 23.682907104492188,46.24551010131847 L 23.682203292846793,46.24672698974615 L 23.678197860717887,46.246826171875 L 23.676103591918945,46.24752044677746 L 23.67137718200678,46.24998092651367 L 23.66968727111822,46.250724792480526 L 23.6687908172608,46.25087738037115 L 23.661895751953125,46.25078201293951 L 23.65883827209484,46.25038528442383 L 23.65657234191906,46.25048065185547 L 23.655536651611328,46.25098037719732 L 23.65455627441412,46.25282669067383 L 23.653909683227653,46.253509521484375 L 23.65307044982916,46.25392532348644 L 23.64805030822754,46.25549316406256 L 23.64720916748047,46.25607299804693 L 23.647270202636776,46.257099151611385 L 23.64853096008312,46.25803375244152 L 23.6461124420166,46.26090240478527 L 23.649251937866154,46.26412200927746 L 23.65577888488781,46.26602554321289 L 23.655540466308707,46.266899108886776 L 23.653738021850643,46.26935195922863 L 23.652513504028377,46.27057647705084 L 23.651325225830078,46.271102905273494 L 23.649793624878043,46.2713737487793 L 23.647880554199276,46.27132034301758 L 23.64141654968273,46.270370483398494 L 23.640390396118164,46.270401000976676 L 23.637939453125057,46.27104949951172 L 23.63025665283203,46.27183532714844 L 23.629507064819393,46.272251129150504 L 23.629119873046875,46.272907257080135 L 23.629653930664006,46.27599334716797 L 23.625028610229435,46.27578735351557 L 23.623403549194393,46.27597045898449 L 23.621995925903377,46.2764778137207 L 23.619298934936467,46.27788162231451 L 23.616710662841854,46.27826309204107 L 23.615262985229606,46.278625488281364 L 23.616750717163143,46.27999114990229 L 23.616287231445426,46.281684875488395 L 23.61634063720703,46.28282546997076 L 23.617290496826286,46.28371810913086 L 23.6178874969483,46.285305023193416 L 23.616979598999137,46.28602600097662 L 23.615108489990234,46.286445617675895 L 23.61027717590332,46.286972045898494 L 23.607202529907227,46.28649520874029 L 23.605215072631836,46.28656005859381 L 23.6040496826173,46.287540435791016 L 23.60178756713873,46.29009246826166 L 23.601806640624943,46.29100036621105 L 23.601493835449276,46.29161071777355 L 23.600769042968807,46.29189300537115 L 23.600669860839844,46.29239273071295 L 23.601854324340763,46.29413604736328 L 23.60207366943365,46.29545593261719 L 23.60138511657715,46.29588699340832 L 23.59545707702631,46.29628372192394 L 23.592739105224553,46.29677581787104 L 23.58975601196289,46.297676086425895 L 23.585386276245117,46.2999382019043 L 23.580169677734432,46.30335998535162 L 23.577941894531364,46.3044166564942 L 23.57694816589367,46.30525207519537 L 23.576076507568416,46.30788040161144 L 23.576435089111385,46.308731079101676 L 23.577882766723633,46.31003952026367 L 23.578674316406364,46.31048965454107 L 23.581550598144645,46.3104362487793 L 23.582296371459904,46.311061859130916 L 23.583215713500977,46.31315231323248 L 23.581989288330135,46.313194274902344 L 23.57983589172369,46.312934875488395 L 23.57796287536621,46.31349945068371 L 23.577646255493164,46.314285278320426 L 23.58120155334484,46.31585311889654 L 23.582239151000977,46.3165397644043 L 23.582853317260856,46.31736755371088 L 23.582691192626953,46.31871414184576 L 23.58189964294445,46.31990432739269 L 23.57727432250988,46.32368469238281 L 23.57573699951172,46.32436752319336 L 23.570272445678825,46.32617568969732 L 23.56864547729498,46.32700347900396 L 23.568077087402344,46.32767105102545 L 23.568105697631893,46.32819747924805 L 23.569303512573356,46.32932662963867 L 23.569496154785213,46.3300895690918 L 23.56700706481945,46.33137512207037 L 23.56294441223139,46.334724426269474 L 23.571613311767578,46.33650207519531 L 23.574699401855582,46.33660125732433 L 23.578561782837028,46.33612060546875 L 23.580722808837834,46.33602905273449 L 23.587196350097713,46.336433410644645 L 23.59479904174816,46.33810806274414 L 23.595487594604492,46.33773422241211 L 23.599630355835075,46.3361434936524 L 23.600574493408203,46.335628509521484 L 23.60301017761236,46.33475112915045 L 23.60649299621582,46.33426666259771 L 23.611196517944393,46.33391189575195 L 23.612627029419002,46.33413696289074 L 23.615903854370117,46.335083007812614 L 23.620565414428768,46.33487701416027 L 23.622037887573242,46.33515930175781 L 23.62300300598156,46.3354606628418 L 23.625110626220817,46.336456298828125 L 23.62754821777338,46.33719635009777 L 23.630451202392692,46.33853530883795 L 23.63312911987316,46.33858108520519 L 23.63378334045416,46.33923339843756 L 23.6361980438233,46.339492797851506 L 23.645586013793945,46.34113693237305 L 23.6469345092774,46.34186935424816 L 23.645765304565543,46.343261718750114 L 23.646533966064396,46.34343338012695 L 23.64805793762207,46.34325408935558 L 23.649337768554688,46.343643188476676 L 23.650697708129883,46.344871520996094 L 23.6516952514649,46.34623718261719 L 23.65253257751465,46.346767425537166 L 23.653867721557617,46.34690856933605 L 23.654033660888672,46.34744262695318 L 23.655059814453125,46.3476676940918 L 23.65527725219738,46.348297119140625 L 23.654777526855582,46.35075378417963 L 23.6552410125733,46.35291290283203 L 23.65510559082037,46.354198455810604 L 23.655952453613395,46.35437011718744 L 23.65681076049816,46.35514450073248 L 23.65712165832531,46.356094360351506 L 23.65730857849121,46.357913970947266 L 23.657913208007812,46.3585090637207 L 23.65961456298828,46.360671997070256 L 23.659397125244197,46.362201690673885 L 23.658575057983512,46.36299514770519 L 23.658658981323242,46.36384963989258 L 23.659973144531193,46.363922119140625 L 23.661792755126896,46.36217880249029 L 23.662717819213924,46.362205505371094 L 23.663429260253906,46.36166000366222 L 23.6646671295166,46.35791778564459 L 23.665246963501033,46.35523605346674 L 23.665924072265625,46.354248046875 L 23.66717720031744,46.35352325439459 L 23.669708251953068,46.352600097656364 L 23.67469024658203,46.35111236572277 L 23.68311691284191,46.34790802001953 L 23.684150695800895,46.347751617431754 L 23.68630027770996,46.34689331054699 L 23.68796539306652,46.347675323486385 L 23.690587997436637,46.35146331787121 L 23.69153976440424,46.351970672607536 L 23.6926784515382,46.351699829101506 L 23.692605972290153,46.35041809082031 L 23.692899703979606,46.34960937499994 L 23.69527244567871,46.34657287597656 L 23.69612121582037,46.34415435791021 L 23.697103500366325,46.343334197998104 L 23.699174880981445,46.342903137207145 L 23.69979858398449,46.34262847900396 L 23.702743530273438,46.33854675292963 L 23.70286560058605,46.337787628173885 L 23.702341079712028,46.335285186767635 L 23.703878402710018,46.33568191528326 L 23.703685760498104,46.33658218383789 L 23.70452690124523,46.3373069763183 L 23.707477569580135,46.33451080322277 L 23.70841979980463,46.333831787109375 L 23.710136413574162,46.33390045166021 L 23.71177101135254,46.334487915039176 L 23.71172523498535,46.3364143371582 L 23.711122512817496,46.337238311767635 L 23.710607528686637,46.338684082031364 L 23.710559844970817,46.33915710449219 L 23.711900711059513,46.3406219482423 L 23.71219253540039,46.341293334960994 L 23.712165832519588,46.34250640869152 L 23.714141845703068,46.341743469238395 L 23.714712142944336,46.34234237670904 L 23.714353561401367,46.34295654296875 L 23.711999893188533,46.34521484374994 L 23.711887359619197,46.347114562988395 L 23.712856292724723,46.34821701049805 L 23.71575736999523,46.34913253784174 L 23.71753120422369,46.350982666015625 L 23.717994689941406,46.351795196533146 L 23.71780586242687,46.35253143310547 L 23.716815948486385,46.35373306274414 L 23.715980529785213,46.355648040771484 L 23.71585083007824,46.356838226318416 L 23.716955184936467,46.358062744140625 L 23.717872619628963,46.35850143432617 L 23.71887016296381,46.35851287841808 L 23.721923828125114,46.35712051391613 L 23.723340988159237,46.35675430297846 L 23.725490570068303,46.35749053955078 L 23.727287292480582,46.360031127929744 L 23.727899551391715,46.36172866821289 L 23.729232788085938,46.366519927978516 L 23.73000907897955,46.36717224121094 L 23.73282623291027,46.368583679199276 L 23.735115051269645,46.36917877197271 L 23.736223220825252,46.36885833740246 L 23.73579788208002,46.36638259887701 L 23.735950469970817,46.365715026855526 L 23.736871719360465,46.36449050903326 L 23.737129211425838,46.36387634277355 L 23.736938476562557,46.36156463623058 L 23.73827934265148,46.360107421875 L 23.739629745483512,46.35959625244146 L 23.740663528442496,46.35948944091808 L 23.742776870727653,46.3602752685548 L 23.743440628051758,46.361305236816406 L 23.743591308593807,46.36225509643566 L 23.74320793151861,46.365417480468864 L 23.74356651306158,46.36627578735363 L 23.74509239196783,46.36724472045893 L 23.747371673584098,46.368240356445426 L 23.750318527221793,46.36856079101568 L 23.752868652343693,46.368209838867244 L 23.754983901977653,46.36737442016607 L 23.7570037841798,46.3661842346192 L 23.758207321166992,46.36470031738281 L 23.758480072021598,46.36385345458996 L 23.759870529174748,46.36267089843756 L 23.75791740417492,46.36147689819347 L 23.75686836242687,46.36029815673828 L 23.755603790283317,46.358432769775504 L 23.75393295288086,46.35750961303722 L 23.753133773803768,46.35723876953119 L 23.753274917602653,46.356079101562614 L 23.754468917846737,46.353500366210994 L 23.75455856323248,46.35202407836914 L 23.761548995971793,46.35218048095709 L 23.76346206665039,46.352584838867244 L 23.768369674682674,46.353313446045036 L 23.76920890808117,46.35354995727539 L 23.770538330078182,46.35337829589855 L 23.771596908569393,46.35252380371094 L 23.773649215698242,46.350437164306754 L 23.77572250366211,46.348758697509766 L 23.77788162231451,46.347660064697266 L 23.77953529357916,46.345779418945426 L 23.78017997741705,46.34529113769537 L 23.7809734344483,46.34500885009777 L 23.7836532592774,46.34475326538086 L 23.785282135009822,46.34413146972656 L 23.788242340087834,46.34226226806646 L 23.791727066040096,46.33934402465832 L 23.792970657348576,46.33863830566412 L 23.79483222961437,46.337886810302734 L 23.79550552368164,46.33728790283209 L 23.796478271484432,46.335807800293026 L 23.79771041870123,46.33487701416027 L 23.800098419189453,46.33366775512707 L 23.796073913574276,46.329086303710994 L 23.795627593994254,46.328456878662166 L 23.795240402221737,46.32689285278326 L 23.794815063476676,46.32606506347662 L 23.790193557739315,46.31990432739269 L 23.789930343627987,46.318679809570426 L 23.790653228759822,46.31719589233404 L 23.789182662963924,46.316864013671875 L 23.787071228027344,46.315986633300895 L 23.786453247070312,46.315330505371094 L 23.785417556762752,46.313930511474666 L 23.78460121154785,46.31353378295904 L 23.782535552978516,46.31308746337896 L 23.78166580200201,46.31262588500982 L 23.781499862670955,46.31218719482433 L 23.781791687011776,46.310340881347656 L 23.78229904174816,46.31003952026367 L 23.784217834472713,46.3100471496582 L 23.784723281860465,46.30964279174799 L 23.785335540771598,46.307258605956974 L 23.78494453430187,46.306655883789176 L 23.784029006958008,46.30626678466808 L 23.781602859497127,46.304119110107365 L 23.779581069946403,46.29857254028332 L 23.77937507629406,46.297401428222656 L 23.779520034790096,46.29522323608404 L 23.779102325439453,46.29419326782221 L 23.78163719177246,46.293170928955135 L 23.78255844116211,46.292236328125 L 23.784492492675895,46.28800964355469 L 23.785312652587947,46.28747177124035 L 23.789192199707088,46.288230895996094 L 23.792024612426758,46.289043426513615 L 23.792169570922965,46.28856658935541 L 23.79153060913086,46.28702926635748 L 23.79090881347662,46.28647994995123 L 23.78538703918457,46.28459548950201 L 23.790470123291072,46.27260208129894 L 23.791189193725586,46.27123260498047 L 23.791397094726506,46.27050399780285 L 23.79102897644043,46.26968765258795 L 23.789758682250977,46.26816940307623 L 23.78925895690918,46.26997375488287 L 23.788511276245117,46.27081680297857 L 23.78471374511713,46.272560119628906 L 23.783134460449332,46.27102661132807 L 23.78093338012701,46.26999282836914 L 23.779611587524357,46.26891708374029 L 23.77866172790533,46.268402099609375 L 23.775222778320312,46.26781845092785 L 23.773424148559627,46.26667022705078 L 23.77270126342779,46.266502380371094 L 23.770614624023438,46.267066955566406 L 23.769962310791016,46.26713943481445 L 23.769285202026367,46.267051696777344 L 23.768102645874023,46.266628265380916 L 23.764816284179744,46.267761230468864 L 23.763275146484432,46.26806259155268 L 23.754131317138672,46.26846694946289 L 23.749818801879996,46.26826095581049 L 23.748165130615348,46.26846694946289 L 23.742557525634822,46.27014923095709 L 23.73131942749029,46.27470397949219 L 23.73136711120611,46.27526092529297 L 23.731046676635856,46.27579116821295 L 23.730772018432674,46.27690505981445 L 23.73516082763672,46.2804527282716 L 23.734672546386776,46.28083038330084 L 23.733495712280387,46.28100204467785 L 23.728221893310547,46.28090667724621 L 23.727016448974553,46.278816223144645 L 23.726043701171932,46.27770233154291 L 23.72466278076172,46.276916503906364 L 23.72319221496582,46.27667236328131 L 23.72104072570812,46.276756286621094 L 23.716943740844783,46.27741241455084 L 23.714994430542106,46.277923583984375 L 23.714151382446403,46.27786254882824 L 23.71051597595215,46.276504516601676 L 23.70616912841797,46.27535247802746 L 23.702697753906193,46.27526092529297 L 23.701572418212947,46.274875640869254 L 23.701187133789062,46.27419281005865 L 23.701305389404297,46.27237319946295 L 23.703109741210938,46.269935607910156 L 23.70494079589855,46.26870727539074 L 23.70640373229986,46.26852416992199 L 23.70958328247076,46.26870727539074 L 23.71335983276373,46.267673492431754 L 23.714225769043026,46.267616271972656 L 23.715095520019474,46.26817321777344 L 23.715744018554744,46.26998901367193 L 23.716114044189567,46.270549774169865 L 23.717346191406364,46.27121734619135 L 23.718635559082088,46.27103042602545 L 23.720787048339957,46.26992416381847 L 23.72160720825201,46.26851272583008 L 23.721099853515682,46.26718902587902 L 23.720344543457088,46.266609191894645 L 23.71559143066412,46.26478576660156 L 23.71494865417486,46.26441955566412 L 23.714429855346793,46.26369476318365 L 23.71433639526373,46.26277542114258 L 23.714986801147518,46.261226654052734 L 23.71699714660656,46.25720214843756 L 23.7169132232666,46.25498199462902 L 23.71587371826172,46.25353240966797 L 23.71466255187994,46.25223541259771 L 23.711902618408317,46.250000000000114 L 23.71136856079113,46.24871826171875 L 23.7102565765382,46.24744415283209 L 23.708707809448356,46.246955871582145 L 23.70637702941889,46.2465705871582 L 23.704938888549748,46.245868682861385 L 23.703390121460075,46.243289947509766 L 23.697107315063533,46.2429313659668 L 23.69575500488287,46.24295425415039 L 23.69492912292486,46.24269104003912 L 23.694765090942383,46.240848541259766 L 23.69431686401373,46.240123748779354 L 23.692167282104435,46.238586425781364 L 23.691375732421932,46.23695755004894 L 23.690656661987305,46.23662185668945 L 23.688877105712834,46.23714065551769 L 23.687206268310547,46.23744964599604 L 23.687833786010742,46.23954772949213 L 23.688743591308707,46.24492645263672 L 23.687135696411133,46.244800567626896 z" /></g></g></svg>