<svg xmlns="http://www.w3.org/2000/svg" xmlns:xlink="http://www.w3.org/1999/xlink" width="100.0" height="100.0" viewBox="22.99714431762701 46.23030433654785 0.12504844665521375 0.07001953124999716" preserveAspectRatio="xMinYMin meet"><g transform="matrix(1,0,0,-1,0,92.5306282043457)"><g><path fill-rule="evenodd" fill="#66cc99" stroke="#555555" stroke-width="0.002500968933104275" opacity="0.6" d="M 23.11756134033203,46.26923751831055 L 23.108898162841797,46.26536560058594 L 23.10748672485363,46.26430511474621 L 23.104681015014762,46.26010513305664 L 23.10163307189947,46.250000000000114 L 23.100803375244254,46.24905395507824 L 23.097520828247184,46.246582031250114 L 23.0965576171875,46.24548721313482 L 23.095674514770508,46.2449302673341 L 23.092174530029354,46.24343872070318 L 23.088010787963924,46.24038314819347 L 23.083366394043082,46.2382049560548 L 23.07521247863781,46.23493576049805 L 23.071325302123967,46.23969650268555 L 23.07060241699213,46.241668701171875 L 23.069700241088924,46.242824554443416 L 23.06843566894537,46.243541717529354 L 23.066627502441406,46.24403762817377 L 23.06496429443365,46.246234893798885 L 23.062850952148438,46.24748611450195 L 23.0626220703125,46.24815368652344 L 23.062761306762752,46.25087356567394 L 23.061862945556697,46.2551727294923 L 23.061449050903434,46.25626754760742 L 23.05998420715332,46.25806045532232 L 23.057676315307674,46.25983810424816 L 23.055141448974666,46.26271438598644 L 23.053401947021484,46.2642440795899 L 23.049621582031193,46.26667404174816 L 23.043565750122013,46.26851654052746 L 23.041521072387695,46.26945877075195 L 23.034791946411076,46.270542144775334 L 23.027051925659293,46.27105712890625 L 23.025453567504826,46.27125549316406 L 23.0227108001709,46.2720832824707 L 23.020351409912053,46.27133178710943 L 23.018688201904297,46.2706871032716 L 23.015596389770508,46.27079391479492 L 23.014116287231502,46.2715797424317 L 23.009817123413143,46.275333404541016 L 23.006668090820426,46.2770614624024 L 23.004106521606445,46.279254913330135 L 23.001775741577205,46.28288269042969 L 23.00555992126465,46.28307723999035 L 23.009967803955135,46.28415679931652 L 23.014947891235465,46.28622436523449 L 23.019996643066463,46.28900146484375 L 23.02426338195812,46.29270935058605 L 23.0276336669923,46.29529953002941 L 23.02804183959961,46.295692443847656 L 23.032444000244197,46.294342041015625 L 23.03491401672369,46.29331588745123 L 23.044847488403434,46.290401458740234 L 23.047790527343807,46.28928375244152 L 23.05300903320324,46.28862762451172 L 23.05723190307623,46.2883415222168 L 23.064565658569393,46.28754806518555 L 23.070388793945426,46.286254882812614 L 23.07513999938959,46.28484725952143 L 23.075983047485465,46.28480148315441 L 23.085800170898494,46.28253173828125 L 23.09811592102045,46.280982971191406 L 23.099718093872127,46.280590057373104 L 23.10583305358898,46.27838897705084 L 23.11215591430664,46.27408218383795 L 23.11620712280279,46.27061080932617 L 23.11756134033203,46.26923751831055 z" /></g></g></svg>